<svg xmlns:dc="http://purl.org/dc/elements/1.1/" xmlns:cc="http://creativecommons.org/ns#" xmlns:rdf="http://www.w3.org/1999/02/22-rdf-syntax-ns#" xmlns:svg="http://www.w3.org/2000/svg" xmlns="http://www.w3.org/2000/svg" xmlns:sodipodi="http://sodipodi.sourceforge.net/DTD/sodipodi-0.dtd" xmlns:inkscape="http://www.inkscape.org/namespaces/inkscape" viewBox="0 0 32 40.00000125" version="1.1" x="0px" y="0px"><g transform="translate(0,-1020.3622)"><path d="M 9.00244,1023.3621 A 14.000966,13.855989 0 0 0 2,1035.3624 l 9.50066,0 a 4.5003101,4.4537103 0 0 1 2.25406,-3.8525 z" style="opacity:1;fill:#000000;fill-opacity:1;stroke:none;stroke-width:0.99999994;stroke-linecap:round;stroke-linejoin:round;stroke-miterlimit:4;stroke-dasharray:none;stroke-opacity:1"/><path d="m 22.99872,1023.3621 -4.74955,8.1459 a 4.4995703,4.4537103 0 0 1 2.25174,3.8544 l 9.49909,0 a 13.998664,13.855989 0 0 0 -7.00128,-12.0003 z" style="opacity:1;fill:#000000;fill-opacity:1;stroke:none;stroke-width:0.99999994;stroke-linecap:round;stroke-linejoin:round;stroke-miterlimit:4;stroke-dasharray:none;stroke-opacity:1"/><path d="m 18.24982,1039.3617 a 4.5015759,4.4526248 0 0 1 -2.24688,0.601 4.5015759,4.4526248 0 0 1 -2.24884,-0.5991 l -4.75165,8.1439 a 14.004904,13.852611 0 0 0 14.00099,0 z" style="opacity:1;fill:#000000;fill-opacity:1;stroke:none;stroke-width:0.99999994;stroke-linecap:round;stroke-linejoin:round;stroke-miterlimit:4;stroke-dasharray:none;stroke-opacity:1"/><path d="m 18.50034,1035.3616 a 2.5001721,2.5000534 0 0 1 -2.50018,2.5001 2.5001721,2.5000534 0 0 1 -2.50017,-2.5001 2.5001721,2.5000534 0 0 1 2.50017,-2.5 2.5001721,2.5000534 0 0 1 2.50018,2.5 z" style="opacity:1;fill:#000000;fill-opacity:1;stroke:none;stroke-width:0.99999994;stroke-linecap:round;stroke-linejoin:round;stroke-miterlimit:4;stroke-dasharray:none;stroke-opacity:1"/></g><text x="0" y="47.000001" fill="#000000" font-size="5px" font-weight="bold" font-family="'Helvetica Neue', Helvetica, Arial-Unicode, Arial, Sans-serif">Created by anbileru adaleru</text><text x="0" y="52.000001" fill="#000000" font-size="5px" font-weight="bold" font-family="'Helvetica Neue', Helvetica, Arial-Unicode, Arial, Sans-serif">from the Noun Project</text></svg>